<svg width="297" height="262" viewBox="0 0 297 262" fill="none" xmlns="http://www.w3.org/2000/svg">
<path d="M276 31.98C243.99 8.04002 206.44 1.92001 167.71 0.820015C155.03 0.460015 146.61 6.88002 143.27 19.32C136.08 46.13 122.23 70.23 112.38 95.95C110.09 101.93 106.29 104.97 100.5 107.46C85.74 113.8 70.97 110.05 56.11 109.05C25.81 107.02 10.1 118.73 2.08998 147.91C-0.850017 158.61 -0.0600178 168.96 1.56998 177.34C5.27998 215.07 29.52 233.74 58.77 246.83C91.81 261.61 127.05 263.68 162.68 259.58C182.19 257.34 202.9 258.75 218.94 244.25C233.65 230.96 248.39 217.33 258.37 200.07C280.03 162.59 287.68 120.9 295.77 78.86C300.18 55.92 291.25 43.39 276.01 31.99L276 31.98Z" fill="#DFD9C9"/>
</svg>
