<svg width="59" height="59" viewBox="0 0 59 59" fill="none" xmlns="http://www.w3.org/2000/svg">
<path d="M29.28 38.61C34.4273 38.61 38.6 34.4373 38.6 29.29C38.6 24.1427 34.4273 19.97 29.28 19.97C24.1327 19.97 19.96 24.1427 19.96 29.29C19.96 34.4373 24.1327 38.61 29.28 38.61Z" fill="#DABB61"/>
<g opacity="0.1">
<path d="M29.28 58.58C45.4509 58.58 58.56 45.4664 58.56 29.29C58.56 13.1136 45.4509 0 29.28 0C13.1091 0 0 13.1136 0 29.29C0 45.4664 13.1091 58.58 29.28 58.58Z" fill="#DABB61"/>
</g>
<g opacity="0.1">
<path d="M29.2801 48.2599C39.7569 48.2599 48.2501 39.7668 48.2501 29.2899C48.2501 18.8131 39.7569 10.3199 29.2801 10.3199C18.8032 10.3199 10.3101 18.8131 10.3101 29.2899C10.3101 39.7668 18.8032 48.2599 29.2801 48.2599Z" fill="#DABB61"/>
</g>
</svg>
