<svg width="53" height="36" viewBox="0 0 53 36" fill="none" xmlns="http://www.w3.org/2000/svg">
<path d="M51.86 10.52C50.81 10.22 49.7701 9.74004 48.7101 9.70004C47.5301 9.66004 47.2001 9.11002 46.91 8.15002C46 5.05002 43.9901 2.86003 41.0201 1.66003C36.6501 -0.0999728 32.7001 1.56001 29.5701 6.49001C28.8301 5.67001 28.28 4.92003 27.59 4.35003C24.07 1.42003 20.09 0.530011 15.73 2.05001C13.78 2.73001 12.14 3.87004 11.91 6.20004C11.67 8.66004 12.74 10.38 14.88 11.53C15.19 11.69 15.56 12.49 15.47 12.59C15.05 13.06 14.79 13.78 13.87 12.87C12.11 11.15 8.24004 11.22 6.98004 13.04C6.23004 14.12 5.46004 14.3 4.34004 14.38C2.25004 14.54 1.03004 15.62 0.930037 17.22C0.760037 19.76 2.33005 22.24 4.80005 22.96C5.88005 23.28 6.52005 23.83 7.13005 24.73C12.68 32.98 22.84 37.01 31.61 34.4C40.95 31.62 45.42 24.56 47.61 15.67C47.89 14.55 48.1901 13.98 49.3201 13.81C50.2101 13.68 51.09 13.43 51.95 13.13C52.56 12.92 52.9301 12.38 52.9601 11.74C52.9901 11.02 52.4801 10.68 51.8501 10.5L51.86 10.52Z" fill="#DFD9C9"/>
<path d="M27.6 4.36002C24.08 1.43002 20.1 0.540033 15.74 2.06003C13.79 2.74003 12.15 3.88003 11.92 6.21003C11.68 8.67003 12.75 10.39 14.89 11.54C15.2 11.7 15.57 12.5 15.48 12.6C15.29 12.81 15.13 13.08 14.92 13.22C14.35 14.01 13.7 15.48 14.94 17.23C16.8 19.87 20.94 20.28 26.54 14.91C31.88 9.80004 29.76 6.76005 29.58 6.48005C28.84 5.66005 28.29 4.91003 27.6 4.34003V4.36002Z" fill="#DABB61"/>
<path d="M40.3501 11.19C41.3276 11.19 42.1201 10.3976 42.1201 9.42004C42.1201 8.4425 41.3276 7.65002 40.3501 7.65002C39.3725 7.65002 38.5801 8.4425 38.5801 9.42004C38.5801 10.3976 39.3725 11.19 40.3501 11.19Z" fill="#3F3D2E"/>
</svg>
