<svg width="46" height="51" viewBox="0 0 46 51" fill="none" xmlns="http://www.w3.org/2000/svg">
<path d="M22.39 50.7C10.07 51.28 -3.38002 38.0401 0.789979 23.0301C2.67998 16.2301 6.31999 10.58 12.08 6.43002C13.17 5.65002 14.31 4.93002 15.63 4.61001C16.68 4.36001 17.45 3.95005 17.51 2.71005C17.53 2.39005 17.73 2.03006 17.96 1.78006C20.47 -1.02994 26.66 -0.0399604 28.02 3.51004C28.53 4.85004 29.31 5.40002 30.49 5.99002C35.49 8.50002 40.02 11.5 43 16.61C45.83 21.46 46.62 26.5 44.89 31.67C41.98 40.36 36.29 46.6101 27.63 49.9001C25.89 50.5601 24.1 50.78 22.39 50.69V50.7Z" fill="#DFD9C9"/>
<path d="M0.790037 23.03C-0.439963 27.46 -0.129955 31.74 1.22004 35.55H43.31C43.9 34.32 44.43 33.03 44.88 31.68C46.61 26.5 45.81 21.47 42.99 16.62C42.34 15.51 41.61 14.5 40.83 13.57H5.11004C3.18004 16.4 1.76004 19.56 0.790037 23.04V23.03Z" fill="#DABB61"/>
<path d="M4.04004 15.26H42.1301C41.2101 13.92 40.1701 12.73 39.0401 11.67H6.52005C5.60005 12.8 4.78004 14 4.04004 15.26Z" fill="#B68E37"/>
<path d="M21.3699 41.68C17.9799 41.68 14.58 41.58 11.1899 41.72C9.35995 41.8 8.05995 41.14 6.96995 39.81C6.65995 39.43 6.33995 39.05 6.02995 38.66C2.99995 34.89 2.99995 34.71 6.02995 31.16C8.93995 27.76 8.88994 27.8 11.7599 31.14C12.8999 32.47 14.09 34.1 15.6 34.69C17.84 35.56 18.1099 32.75 19.2799 31.67C23.4699 27.81 23.3599 27.7 27.1499 31.95C28.0899 33 29.0899 34.01 30.0899 35.01C31.0599 35.98 31.9799 36.07 32.9299 34.89C34.2499 33.24 35.7 31.68 37.04 30.04C37.72 29.21 38.1899 29.13 39.0599 29.91C41.5099 32.13 41.5699 32.12 39.8999 34.96C39.3699 35.87 38.8199 36.79 38.2199 37.66C36.0599 40.84 33.6599 43.26 29.1799 42.2C26.6799 41.61 23.9799 41.88 21.3599 41.76C21.3599 41.73 21.3599 41.69 21.3599 41.66L21.3699 41.68Z" fill="#E46242"/>
<path d="M29.75 5.59003C28.97 5.11003 28.41 4.55001 28.02 3.51001C26.66 -0.029989 20.47 -1.01997 17.96 1.78003C17.74 2.03003 17.53 2.39002 17.51 2.71002C17.46 3.64002 17.01 4.10001 16.35 4.38001C16.35 4.38001 21.71 2.60002 29.75 5.58002V5.59003Z" fill="#B68E37"/>
<path d="M30.83 34.41L23.08 27.43L15.33 34.41L7.58003 27.43L0.660034 33.66C1.55003 37.15 3.31004 40.31 5.63004 42.94H38.3C40.99 40.11 43.05 36.7 44.51 32.76L38.59 27.43L30.84 34.41H30.83Z" fill="#D85B59"/>
</svg>
