<svg width="37" height="51" viewBox="0 0 37 51" fill="none" xmlns="http://www.w3.org/2000/svg">
<path d="M18.82 50.55C15.44 50.55 13.56 48.48 14.12 45.1C14.33 43.85 14 43.53 12.85 43.42C8.71 43.02 5.34 41.08 2.57 38.05C-0.0899961 35.14 -0.569997 32.33 1.78 29.23C4.5 25.65 5.34001 21.65 5.80001 17.38C6.13001 14.3 6.57 11.18 8.5 8.55998C9.22 7.57998 9.98 6.60999 11.07 6.06999C12.57 5.32999 13.84 4.77999 14.07 2.62999C14.24 1.05999 16.26 0.820004 17.76 0.830004C19.33 0.850004 20.79 1.43996 21.13 3.15996C21.35 4.28996 21.9 4.72998 22.85 5.23998C26.33 7.08998 28.95 9.80998 30.21 13.62C30.94 15.83 31.55 18.09 32.06 20.37C32.71 23.28 33.3 26.07 35.68 28.29C37.51 30 36.87 33.52 34.85 36.53C32.51 40.02 28.87 41.38 25.16 42.58C24.06 42.94 23.82 43.25 23.92 44.42C24.27 48.49 22.48 50.55 18.82 50.56V50.55Z" fill="#B68E37"/>
<path d="M34.86 36.51C36.88 33.5 37.52 29.98 35.69 28.27C33.31 26.05 32.72 23.26 32.07 20.35C31.56 18.08 30.96 15.81 30.22 13.6C29.28 10.76 27.57 8.52001 25.32 6.80001C23.75 5.60001 21.93 4.73999 19.98 4.40999C15.57 3.65999 12.38 5.37002 12.38 5.37002C11.98 5.62002 11.54 5.83002 11.07 6.06002C9.98 6.60002 9.22 7.57001 8.5 8.55001C6.58 11.18 6.13001 14.29 5.80001 17.37C5.35001 21.64 4.5 25.64 1.78 29.22C-0.569997 32.32 -0.0899961 35.13 2.57 38.04C4.41 40.05 6.51 41.58 8.93 42.5C10.15 42.96 11.44 43.22 12.74 43.34C20.45 44.05 24.48 42.8 25.09 42.58C25.12 42.57 25.14 42.56 25.18 42.55C28.89 41.35 32.53 39.98 34.87 36.5L34.86 36.51Z" fill="#DABB61"/>
<path d="M6.64001 34.65C7.47396 34.65 8.15001 33.974 8.15001 33.14C8.15001 32.3061 7.47396 31.63 6.64001 31.63C5.80606 31.63 5.13 32.3061 5.13 33.14C5.13 33.974 5.80606 34.65 6.64001 34.65Z" fill="#B68E37"/>
<path d="M30.31 34.65C31.144 34.65 31.82 33.974 31.82 33.14C31.82 32.3061 31.144 31.63 30.31 31.63C29.4761 31.63 28.8 32.3061 28.8 33.14C28.8 33.974 29.4761 34.65 30.31 34.65Z" fill="#B68E37"/>
<path d="M22.6799 38.56C23.5139 38.56 24.1899 37.8839 24.1899 37.05C24.1899 36.216 23.5139 35.54 22.6799 35.54C21.846 35.54 21.1699 36.216 21.1699 37.05C21.1699 37.8839 21.846 38.56 22.6799 38.56Z" fill="#B68E37"/>
<path d="M14.36 38.95C15.1939 38.95 15.87 38.274 15.87 37.44C15.87 36.6061 15.1939 35.93 14.36 35.93C13.526 35.93 12.85 36.6061 12.85 37.44C12.85 38.274 13.526 38.95 14.36 38.95Z" fill="#B68E37"/>
</svg>
