<svg width="46" height="39" viewBox="0 0 46 39" fill="none" xmlns="http://www.w3.org/2000/svg">
<path d="M0.159967 22.64C0.109967 21.4 0.219959 19.88 0.869959 18.4C2.65996 14.36 5.17996 13.01 9.50996 13.96C11.63 14.43 13.68 15.29 15.95 14.69C16.84 14.46 17.45 14.0999 17.91 13.2899C19.89 9.78995 22.41 6.61 24.03 2.9C24.78 1.18 26.13 0.429981 27.96 0.759981C33.52 1.75998 38.81 3.44995 42.91 7.59995C44.86 9.57995 45.88 11.5799 44.75 14.7899C42.67 20.6799 40.67 26.54 36.73 31.48C34.92 33.76 32.49 35.4 30.08 37C27.45 38.75 24.49 38.09 21.63 37.99C16.4 37.81 11.36 36.75 6.90997 33.9C2.96997 31.38 -0.120033 28.16 0.159967 22.63V22.64Z" fill="#D85B59"/>
<path d="M34.17 29.34C30.95 27.85 27.53 27.86 24.21 28.92C21.92 29.65 19.83 34.42 20.54 37.08C20.64 37.46 20.79 37.74 20.96 37.96C21.18 37.97 21.4 37.98 21.62 37.99C24.48 38.09 27.44 38.74 30.07 37C32.29 35.52 34.52 34 36.27 31.99C36.66 30.98 36 30.18 34.16 29.33L34.17 29.34Z" fill="#DFD9C9"/>
</svg>
