<svg width="40" height="41" viewBox="0 0 40 41" fill="none" xmlns="http://www.w3.org/2000/svg">
<path d="M19.21 40.77C11.68 40.48 3.74995 34.64 1.02995 26.48C0.229951 24.1 0.0199521 21.65 0.479952 19.17C2.51995 8.30001 7.44995 3.34002 18.12 1.12002C23.36 0.0300183 28.3 1.88001 32.26 5.74001C34.39 7.81001 36.31 9.94003 37.67 12.69C42.47 22.36 36.54 33.46 29.04 37.7C26.34 39.23 23.7299 40.9901 19.1999 40.7801L19.21 40.77Z" fill="#D85B59"/>
<path d="M38.86 15.83L33.88 20.32L27.01 14.14L20.14 20.32L13.27 14.13L6.39997 20.31L1.29997 15.72L1.26997 15.76C0.969968 16.82 0.699967 17.95 0.479967 19.16C0.309967 20.08 0.229969 20.99 0.239969 21.9L6.39997 27.45L13.27 21.27L20.14 27.45L27.01 21.27L33.88 27.45L39.23 22.63C39.55 20.4 39.46 18.1 38.86 15.83Z" fill="#DABB61"/>
</svg>
