<svg width="27" height="45" viewBox="0 0 27 45" fill="none" xmlns="http://www.w3.org/2000/svg">
<path d="M26.2999 23.45C26.0999 24.01 25.9599 24.63 25.6799 25.19C23.6999 29.16 22.1699 33.36 19.6699 37.07C18.3299 39.06 17.2599 41.22 16.2699 43.41C15.3399 45.45 14.3599 45.4 12.8399 43.83C8.30994 39.15 5.62995 33.23 1.90995 28.01C-0.160052 25.11 0.789938 22.36 2.14994 19.65C5.05994 13.85 8.04995 8.09 11.0199 2.32C12.0799 0.249998 12.7499 0.119985 14.0399 2.14998C18.1899 8.69998 22.2599 15.3 25.8599 22.17C26.0499 22.54 26.1399 22.96 26.2999 23.44V23.45Z" fill="#B68E37"/>
<path d="M26.2899 23.43C26.1299 22.96 26.04 22.54 25.86 22.18C22.25 15.31 18.1899 8.71002 14.0399 2.16002C12.7499 0.130019 12.08 0.250002 11.02 2.33C8.04996 8.1 5.05995 13.86 2.14995 19.66C1.36995 21.22 0.719961 22.8 0.709961 24.41C4.06996 26.25 8.21995 27.33 12.7 27.33C17.93 27.33 22.7 25.85 26.3 23.43H26.2899Z" fill="#DABB61"/>
</svg>
