<svg width="33" height="28" viewBox="0 0 33 28" fill="none" xmlns="http://www.w3.org/2000/svg">
<path d="M16.6701 4.95001C20.3901 0.170013 23.2701 -0.750011 27.7901 1.29999C31.7001 3.07999 33.3701 7.12 32.3401 12.31C31.6601 15.7 29.6901 18.38 27.4901 20.88C26.0501 22.52 24.3701 23.96 22.8001 25.49C21.0401 27.22 19.0401 27.83 16.6001 27.13C9.74011 25.17 4.41011 21.22 1.11011 14.88C-0.719894 11.37 -0.0298986 7.81 2.2301 4.66C4.3201 1.74 7.26011 0.40999 10.8801 0.76999C13.5901 1.02999 15.2601 2.82001 16.6801 4.95001H16.6701Z" fill="#D85B59"/>
<path d="M16.6701 4.95005C15.2501 2.82005 13.5701 1.03002 10.8701 0.770023C7.25009 0.420023 4.31009 1.74004 2.22009 4.66004C-0.0399084 7.81004 -0.729903 11.37 1.1001 14.88C3.4701 19.42 6.87011 22.73 11.1401 24.97C23.6301 15.83 25.4001 4.92004 25.5601 0.510044C22.2401 -0.299956 19.7401 1.01005 16.6801 4.95005H16.6701Z" fill="#F68080"/>
<path d="M16.6701 4.95002C15.2501 2.82002 13.5701 1.03 10.8701 0.77C7.25008 0.42 4.31009 1.74001 2.22009 4.66001C-0.0299108 7.81001 -0.719916 11.36 1.09008 14.86C16.3301 14.08 16.6701 4.95002 16.6701 4.95002Z" fill="#ECB8AB"/>
</svg>
