<svg width="30" height="30" viewBox="0 0 30 30" fill="none" xmlns="http://www.w3.org/2000/svg">
<path opacity="0.9" d="M19.4367 15.8833V12.3233C18.9434 12.3933 18.4634 12.4567 17.9834 12.5267C16.3667 12.7567 14.7534 12.9933 13.1367 13.2167C12.94 13.2433 12.8967 13.3133 12.8967 13.5C12.9034 15.26 12.9034 17.0167 12.8967 18.7767C12.8967 19.9067 12.2234 20.79 11.2034 21.0233C10.27 21.2367 9.31669 20.83 8.82335 20.0067C8.33335 19.1867 8.43004 18.16 9.07004 17.4367C9.69004 16.7333 10.7034 16.51 11.5767 16.8833C11.64 16.91 11.7034 16.9367 11.8034 16.98C11.8034 16.8567 11.8034 16.7633 11.8034 16.6733C11.8034 14.7167 11.8034 12.76 11.8034 10.8067C11.8034 10.26 11.9167 10.12 12.45 10.0433C14.6267 9.72999 16.8034 9.41999 18.98 9.10666C19.26 9.06666 19.54 9.02332 19.8234 8.98332C20.2567 8.91999 20.5367 9.14666 20.5367 9.57999C20.5367 12.3233 20.5434 15.07 20.5367 17.8133C20.5334 18.9733 19.6267 19.92 18.49 19.99C17.3734 20.06 16.35 19.25 16.1867 18.1667C16.01 16.99 16.7267 15.9267 17.8834 15.6667C18.3434 15.5633 18.7934 15.6167 19.2267 15.8C19.29 15.8267 19.3534 15.8533 19.44 15.8933L19.4367 15.8833Z" fill="#DABB61"/>
<path d="M17.9366 2H11.6333C6.18227 2 1.76331 6.41895 1.76331 11.87V18.1733C1.76331 23.6244 6.18227 28.0433 11.6333 28.0433H17.9366C23.3877 28.0433 27.8066 23.6244 27.8066 18.1733V11.87C27.8066 6.41895 23.3877 2 17.9366 2Z" stroke="#DABB61" stroke-width="3" stroke-miterlimit="10"/>
</svg>
