<svg width="30" height="30" viewBox="0 0 30 30" fill="none" xmlns="http://www.w3.org/2000/svg">
<path d="M5.03333 25.0167L25.0167 5.03333" stroke="#DABB61" stroke-width="3" stroke-miterlimit="10" stroke-linecap="round" stroke-linejoin="round"/>
<path opacity="0.9" d="M19.6767 15.8867C19.6767 14.6833 19.6767 13.5167 19.6767 12.3267C19.1833 12.3967 18.7033 12.46 18.2233 12.53C16.6067 12.76 14.9933 12.9967 13.3766 13.22C13.18 13.2467 13.1367 13.3167 13.1367 13.5033C13.1433 15.2633 13.1433 17.02 13.14 18.78C13.1367 19.91 12.4667 20.7933 11.4467 21.0267C10.5133 21.24 9.55998 20.8334 9.06665 20.01C8.57665 19.19 8.67331 18.1633 9.31331 17.44C9.93331 16.7367 10.9467 16.5133 11.82 16.8867C11.8833 16.9133 11.9466 16.94 12.0466 16.9833C12.0466 16.86 12.0466 16.7667 12.0466 16.6767C12.0466 14.72 12.0466 12.7633 12.0466 10.81C12.0466 10.2633 12.16 10.1233 12.6933 10.0467C14.87 9.73335 17.0467 9.42335 19.2233 9.11002C19.5033 9.07002 19.7833 9.02668 20.0666 8.98668C20.5 8.92335 20.78 9.15001 20.78 9.58335C20.7833 12.3267 20.7866 15.0733 20.7766 17.8167C20.7733 18.9767 19.8666 19.9233 18.73 19.9933C17.6133 20.0633 16.59 19.2533 16.4267 18.17C16.25 16.9933 16.9667 15.93 18.1233 15.67C18.5833 15.5667 19.0333 15.62 19.4667 15.8033C19.5267 15.82 19.59 15.85 19.6767 15.8867Z" fill="#DABB61"/>
<path d="M18.1767 28.0467H11.87C6.44333 28.0467 2 23.6067 2 18.1767V11.87C2 6.44334 6.43999 2 11.87 2H18.1767C23.6033 2 28.0467 6.44 28.0467 11.87V18.1767C28.0467 23.6067 23.6067 28.0467 18.1767 28.0467Z" stroke="#DABB61" stroke-width="3" stroke-miterlimit="10"/>
</svg>
